<svg version="1.2" baseProfile="tiny-ps" xmlns="http://www.w3.org/2000/svg" viewBox="0 0 50 50" width="50" height="50">
	<title>arrow-large-right-svg</title>
	<style>
		tspan { white-space:pre }
		.shp0 { fill: #000000 } 
	</style>
	<path id="Layer" class="shp0" d="M43.75 22.92L11.28 22.92L22.45 11.74C23.27 10.93 23.27 9.61 22.45 8.8C21.64 7.98 20.32 7.98 19.51 8.8L4.78 23.53L4.78 23.53C4.68 23.62 4.59 23.73 4.52 23.84C4.48 23.9 4.46 23.95 4.43 24.01C4.39 24.07 4.35 24.13 4.33 24.2C4.3 24.27 4.28 24.35 4.26 24.42C4.24 24.48 4.22 24.53 4.21 24.59C4.18 24.73 4.17 24.86 4.17 25L4.17 25C4.17 25 4.17 25 4.17 25C4.17 25.14 4.18 25.27 4.21 25.41C4.22 25.47 4.24 25.53 4.26 25.59C4.28 25.66 4.3 25.73 4.33 25.8C4.36 25.87 4.4 25.93 4.43 26C4.46 26.05 4.48 26.11 4.52 26.15C4.59 26.27 4.68 26.38 4.78 26.47L19.51 41.2C20.32 42.02 21.64 42.02 22.45 41.2C23.27 40.39 23.27 39.07 22.45 38.26L11.28 27.08L43.75 27.08C44.9 27.08 45.83 26.15 45.83 25C45.83 23.85 44.9 22.92 43.75 22.92Z" />
</svg>