<svg version="1.2" baseProfile="tiny-ps" xmlns="http://www.w3.org/2000/svg" viewBox="0 0 50 50" width="50" height="50">
	<title>arrow-large-right-svg</title>
	<style>
		tspan { white-space:pre }
		.shp0 { fill: #000000 } 
	</style>
	<path id="Layer" class="shp0" d="M6.25 27.08L38.72 27.08L27.55 38.26C26.73 39.07 26.73 40.39 27.55 41.2C28.36 42.02 29.68 42.02 30.49 41.2L45.22 26.47L45.22 26.47C45.32 26.38 45.41 26.27 45.48 26.16C45.52 26.1 45.54 26.05 45.57 25.99C45.61 25.93 45.65 25.87 45.67 25.8C45.7 25.73 45.72 25.65 45.74 25.58C45.76 25.52 45.78 25.47 45.79 25.41C45.82 25.27 45.83 25.14 45.83 25L45.83 25C45.83 25 45.83 25 45.83 25C45.83 24.86 45.82 24.73 45.79 24.59C45.78 24.53 45.76 24.47 45.74 24.41C45.72 24.34 45.7 24.27 45.67 24.2C45.64 24.13 45.6 24.07 45.57 24C45.54 23.95 45.52 23.89 45.48 23.85C45.41 23.73 45.32 23.62 45.22 23.53L30.49 8.8C29.68 7.98 28.36 7.98 27.55 8.8C26.73 9.61 26.73 10.93 27.55 11.74L38.72 22.92L6.25 22.92C5.1 22.92 4.17 23.85 4.17 25C4.17 26.15 5.1 27.08 6.25 27.08Z" />
</svg>